<?xml version="1.0" encoding="iso-8859-1"?>
<!-- Generator: Adobe Illustrator 20.0.0, SVG Export Plug-In . SVG Version: 6.00 Build 0)  -->
<svg version="1.1" id="Layer_1" xmlns="http://www.w3.org/2000/svg" xmlns:xlink="http://www.w3.org/1999/xlink" x="0px" y="0px"
	 viewBox="0 0 647.505 166.481" style="enable-background:new 0 0 647.505 166.481;" xml:space="preserve">
<g>
	<g>
		<path style="fill:#FFFFFF;stroke:#FFFFFF;stroke-miterlimit:10;" d="M196.016,99.791c0.299,5.533,1.556,10.025,3.772,13.478
			c4.221,6.463,11.661,9.692,22.319,9.692c4.774,0,9.123-0.707,13.046-2.124c7.589-2.744,11.383-7.657,11.383-14.738
			c0-5.312-1.608-9.096-4.823-11.353c-3.259-2.213-8.361-4.139-15.307-5.776l-12.798-2.987c-8.361-1.947-14.278-4.093-17.75-6.439
			c-6.003-4.071-9.004-10.157-9.004-18.257c0-8.763,2.95-15.955,8.85-21.576c5.9-5.62,14.256-8.432,25.067-8.432
			c9.949,0,18.401,2.468,25.357,7.402c6.956,4.936,10.434,12.825,10.434,23.667h-12.415c-0.637-5.222-1.995-9.228-4.074-12.016
			c-3.862-5.089-10.418-7.635-19.667-7.635c-7.469,0-12.837,1.638-16.104,4.913c-3.268,3.276-4.9,7.082-4.9,11.419
			c0,4.78,1.929,8.277,5.789,10.49c2.53,1.417,8.255,3.187,17.175,5.311l13.25,3.12c6.39,1.505,11.321,3.563,14.794,6.174
			c6.004,4.559,9.006,11.176,9.006,19.85c0,10.8-3.831,18.522-11.492,23.17c-7.662,4.647-16.564,6.971-26.707,6.971
			c-11.828,0-21.086-3.098-27.775-9.294c-6.694-6.151-9.974-14.495-9.841-25.029H196.016z"/>
		<path style="fill:#FFFFFF;stroke:#FFFFFF;stroke-miterlimit:10;" d="M284.323,60.158v47.202c0,3.63,0.56,6.596,1.681,8.896
			c2.069,4.249,5.926,6.373,11.574,6.373c8.103,0,13.62-3.718,16.551-11.153c1.595-3.983,2.392-9.449,2.392-16.397v-34.92h11.95
			v71.102h-11.286l0.133-10.489c-1.522,2.7-3.412,4.979-5.67,6.838c-4.473,3.718-9.901,5.576-16.285,5.576
			c-9.946,0-16.721-3.386-20.324-10.157c-1.954-3.628-2.932-8.475-2.932-14.539V60.158H284.323z"/>
		<path style="fill:#FFFFFF;stroke:#FFFFFF;stroke-miterlimit:10;" d="M343.459,33.403h11.618v35.385
			c2.622-3.408,5.754-6.008,9.397-7.801s7.598-2.688,11.864-2.688c8.886,0,16.095,3.043,21.627,9.128
			c5.531,6.086,8.298,15.06,8.298,26.92c0,11.242-2.733,20.58-8.198,28.016c-5.464,7.436-13.04,11.153-22.726,11.153
			c-5.421,0-9.997-1.306-13.729-3.917c-2.222-1.548-4.598-4.026-7.13-7.436v9.096h-11.021V33.403z M389.151,115.26
			c3.22-5.134,4.83-11.905,4.83-20.314c0-7.479-1.61-13.676-4.83-18.589c-3.22-4.913-7.96-7.369-14.222-7.369
			c-5.462,0-10.247,2.014-14.354,6.042c-4.108,4.028-6.162,10.667-6.162,19.917c0,6.683,0.843,12.105,2.531,16.265
			c3.153,7.834,9.036,11.751,17.652,11.751C381.08,122.961,385.931,120.395,389.151,115.26z"/>
		<path style="fill:#FFFFFF;stroke:#FFFFFF;stroke-miterlimit:10;" d="M418.98,40.307h12.083v19.851h11.353v9.759h-11.353v46.406
			c0,2.479,0.84,4.139,2.523,4.979c0.93,0.487,2.478,0.73,4.647,0.73c0.575,0,1.195-0.015,1.859-0.044
			c0.664-0.029,1.438-0.104,2.324-0.222v9.493c-1.372,0.398-2.8,0.686-4.282,0.863c-1.483,0.176-3.087,0.266-4.813,0.266
			c-5.577,0-9.361-1.428-11.353-4.282c-1.992-2.854-2.987-6.562-2.987-11.12v-47.07h-9.626v-9.759h9.626V40.307z"/>
		<path style="fill:#FFFFFF;stroke:#FFFFFF;stroke-miterlimit:10;" d="M461.125,60.158l18.987,57.891l19.784-57.891h13.079
			l-26.767,71.102h-12.734L447.25,60.158H461.125z"/>
		<path style="fill:#FFFFFF;stroke:#FFFFFF;stroke-miterlimit:10;" d="M527.008,40.307h12.083v19.851h11.353v9.759h-11.353v46.406
			c0,2.479,0.84,4.139,2.523,4.979c0.93,0.487,2.478,0.73,4.647,0.73c0.575,0,1.195-0.015,1.859-0.044
			c0.664-0.029,1.438-0.104,2.324-0.222v9.493c-1.372,0.398-2.8,0.686-4.282,0.863c-1.483,0.176-3.087,0.266-4.813,0.266
			c-5.577,0-9.361-1.428-11.353-4.282c-1.992-2.854-2.987-6.562-2.987-11.12v-47.07h-9.626v-9.759h9.626V40.307z"/>
		<path style="fill:#FFFFFF;stroke:#FFFFFF;stroke-miterlimit:10;" d="M559.897,33.735h11.95v97.525h-11.95V33.735z"/>
		<path style="fill:#FFFFFF;stroke:#FFFFFF;stroke-miterlimit:10;" d="M630.944,62.116c4.706,2.368,8.291,5.433,10.755,9.195
			c2.375,3.585,3.958,7.767,4.751,12.547c0.703,3.275,1.056,8.497,1.056,15.667h-51.717c0.22,7.234,1.911,13.038,5.073,17.41
			c3.162,4.371,8.058,6.557,14.688,6.557c6.192,0,11.132-2.067,14.821-6.202c2.064-2.4,3.527-5.18,4.388-8.337h11.751
			c-0.31,2.611-1.339,5.521-3.087,8.73c-1.749,3.209-3.699,5.831-5.851,7.867c-3.603,3.541-8.061,5.93-13.375,7.17
			c-2.855,0.707-6.084,1.062-9.686,1.062c-8.796,0-16.251-3.22-22.366-9.659c-6.114-6.439-9.17-15.457-9.17-27.054
			c0-11.419,3.079-20.69,9.238-27.816c6.157-7.125,14.207-10.689,24.148-10.689C621.376,58.564,626.236,59.749,630.944,62.116z
			 M635.224,90.032c-0.483-5.179-1.603-9.316-3.358-12.415c-3.248-5.753-8.668-8.63-16.26-8.63c-5.442,0-10.006,1.981-13.693,5.942
			c-3.687,3.961-5.64,8.996-5.859,15.103H635.224z"/>
	</g>
	<g id="kcq72v_1_">
		<g>
			<path style="fill:#FFFFFF;" d="M0.026,70.96C0.025,53.317,0.074,35.674,0,18.031c-0.029-6.85,2.844-12.002,8.578-15.549
				c2.698-1.669,5.736-2.477,8.951-2.477C51.435,0.006,85.341,0.009,119.247,0c7.373-0.002,14.031,4.712,16.592,11.61
				c0.768,2.067,0.934,4.153,0.935,6.274c0.022,31.941,0.012,63.882,0.021,95.824c0.002,7.908-4.12,13.129-10.947,16.359
				c-1.89,0.895-4.201,1.206-6.328,1.241c-7.606,0.124-15.216,0-22.825,0.016c-0.578,0.001-1.251,0.228-1.719,0.571
				c-8.357,6.126-16.682,12.297-25.03,18.437c-6.698,4.927-13.41,9.835-20.132,14.729c-1.864,1.357-3.874,1.992-6.078,0.763
				c-2.258-1.26-3.448-3.067-3.429-5.785c0.077-10.702,0.074-21.405,0.021-32.107c-0.007-1.482,0.498-2.448,1.684-3.216
				c2.314-1.499,4.586-3.063,6.909-4.548c1.587-1.014,3.058-0.234,3.196,1.695c0.09,1.248,0.052,2.507,0.048,3.761
				c-0.021,6.103-0.045,12.207-0.081,18.31c-0.005,0.792-0.108,1.583-0.113,2.375c-0.002,0.388,0.116,0.777,0.179,1.166
				c0.422-0.093,0.922-0.072,1.253-0.298c1.862-1.273,3.683-2.605,5.519-3.917c10.302-7.36,20.581-14.753,30.939-22.034
				c1.159-0.815,2.757-1.379,4.164-1.405c7.355-0.135,14.715-0.129,22.072-0.032c5.585,0.073,9.265-4.017,9.266-9.187
				c0.003-19.608-0.028-39.215-0.04-58.823c-0.006-10.327,0.007-20.653-0.003-30.98c-0.004-3.747-1.551-6.61-4.96-8.326
				c-0.585-0.294-1.242-0.516-1.888-0.601c-1.074-0.142-2.166-0.202-3.251-0.202c-31.272-0.01-62.545,0.008-93.817-0.032
				c-3.585-0.005-6.734,0.822-8.554,4.094c-0.815,1.464-1.319,3.306-1.328,4.98c-0.09,17.266-0.042,34.533-0.047,51.799
				c-0.004,13.211-0.026,26.422-0.049,39.633c-0.001,0.709-0.108,1.417-0.123,2.126c-0.022,1.086,0.479,1.385,1.403,0.81
				c1.099-0.684,2.16-1.429,3.244-2.138c6.574-4.301,13.152-8.596,19.724-12.899c8.775-5.746,17.542-11.502,26.318-17.246
				c6.922-4.531,13.848-9.054,20.779-13.569c1.025-0.668,1.058-1.131,0.066-1.832c-7.983-5.644-15.965-11.29-23.946-16.936
				c-1.908-1.35-3.806-2.715-5.729-4.043c-0.239-0.165-0.629-0.241-0.902-0.171c-0.142,0.036-0.253,0.482-0.252,0.742
				c0.04,6.895,0.099,13.79,0.147,20.684c0.011,1.589-0.055,3.179,0.008,4.765c0.048,1.223-0.453,2.09-1.413,2.754
				c-2.336,1.617-4.635,3.295-7.042,4.799c-0.598,0.374-1.596,0.372-2.329,0.2c-0.88-0.207-1.013-1.091-1.013-1.944
				c0.004-14.549-0.006-29.098-0.005-43.647c0-2.48,1.305-4.262,3.378-5.329c1.888-0.971,3.908-0.81,5.71,0.457
				c6.015,4.23,12.016,8.479,18.028,12.713c7.481,5.269,14.97,10.528,22.452,15.797c2.425,1.708,4.824,3.454,7.26,5.147
				c3.96,2.751,4.095,7.311,0.147,10.078c-3.385,2.373-6.911,4.544-10.372,6.81c-8.914,5.836-17.824,11.68-26.74,17.512
				c-8.287,5.421-16.585,10.824-24.87,16.248c-8.634,5.652-17.259,11.319-25.887,16.981c-3.318,2.178-6.216,1.764-8.531-1.334
				c-0.468-0.627-0.783-1.501-0.831-2.283c-0.126-2.041-0.078-4.094-0.079-6.142C0.025,104.49,0.026,87.725,0.026,70.96z"/>
		</g>
	</g>
</g>
<g>
</g>
<g>
</g>
<g>
</g>
<g>
</g>
<g>
</g>
<g>
</g>
<g>
</g>
<g>
</g>
<g>
</g>
<g>
</g>
<g>
</g>
<g>
</g>
<g>
</g>
<g>
</g>
<g>
</g>
</svg>
